<svg width="40" height="40" viewBox="0 0 40 40" fill="none" xmlns="http://www.w3.org/2000/svg">
<g clip-path="url(#clip0_3977_210222)">
<path d="M0 6.66667C0 2.98477 2.98477 0 6.66667 0H33.3333C37.0152 0 40 2.98477 40 6.66667V33.3333C40 37.0152 37.0152 40 33.3333 40H6.66667C2.98477 40 0 37.0152 0 33.3333V6.66667Z" fill="#080808"/>
<path d="M28.7356 13.1037C28.7356 13.1037 28.7356 13.1037 28.7356 13.1037C29.8756 11.1291 29.1991 8.60421 27.2245 7.46419C25.2499 6.32417 22.725 7.00071 21.585 8.97529C21.579 8.98568 21.5731 8.99608 21.5672 9.0065L11.2642 26.8518L18.4147 30.9802L28.7357 13.1038L28.7356 13.1037Z" fill="#565656"/>
<ellipse cx="14.8392" cy="28.9159" rx="4.12839" ry="4.12839" transform="rotate(30 14.8392 28.9159)" fill="white"/>
</g>
<defs>
<clipPath id="clip0_3977_210222">
<rect width="40" height="40" fill="white"/>
</clipPath>
</defs>
</svg>
